<svg width="16" height="16" viewBox="0 0 16 16" fill="none" xmlns="http://www.w3.org/2000/svg">
<g opacity="0.5">
<path d="M9.25067 12.55C8.83858 12.6279 8.42007 12.667 8.00067 12.6667C5.01534 12.6667 2.48867 10.7047 1.63867 8C1.86752 7.27207 2.22 6.58897 2.68067 5.98067M6.58601 6.586C6.96111 6.2109 7.46986 6.00016 8.00034 6.00016C8.53082 6.00016 9.03957 6.2109 9.41467 6.586C9.78978 6.9611 10.0005 7.46986 10.0005 8.00033C10.0005 8.53081 9.78978 9.03956 9.41467 9.41467M6.58601 6.586L9.41467 9.41467M6.58601 6.586L9.41401 9.41333M9.41467 9.41467L11.6087 11.608M6.58734 6.58667L4.39401 4.39333M4.39401 4.39333L2.00067 2M4.39401 4.39333C5.46891 3.69971 6.7214 3.3316 8.00067 3.33333C10.986 3.33333 13.5127 5.29533 14.3627 8C13.8934 9.48697 12.9196 10.7637 11.6087 11.608M4.39401 4.39333L11.6087 11.608M11.6087 11.608L14.0007 14" stroke="black" stroke-width="1.33333" stroke-linecap="round" stroke-linejoin="round"/>
</g>
</svg>
