<svg width="20" height="20" viewBox="0 0 20 20" fill="none" xmlns="http://www.w3.org/2000/svg">
    <symbol id="ip-ic">
        <path d="M13.3332 5.83333C13.3332 6.71739 12.982 7.56523 12.3569 8.19036C11.7317 8.81548 10.8839 9.16667 9.99984 9.16667C9.11578 9.16667 8.26794 8.81548 7.64281 8.19036C7.01769 7.56523 6.6665 6.71739 6.6665 5.83333C6.6665 4.94928 7.01769 4.10143 7.64281 3.47631C8.26794 2.85119 9.11578 2.5 9.99984 2.5C10.8839 2.5 11.7317 2.85119 12.3569 3.47631C12.982 4.10143 13.3332 4.94928 13.3332 5.83333V5.83333ZM9.99984 11.6667C8.45274 11.6667 6.96901 12.2812 5.87505 13.3752C4.78109 14.4692 4.1665 15.9529 4.1665 17.5H15.8332C15.8332 15.9529 15.2186 14.4692 14.1246 13.3752C13.0307 12.2812 11.5469 11.6667 9.99984 11.6667V11.6667Z" fill="none" stroke-width="1.66667" stroke-linecap="round" stroke-linejoin="round"/>
    </symbol>
    <symbol id="too-ic">
        <path d="M14.1665 16.6673H18.3332V15.0007C18.3331 14.4811 18.1712 13.9745 17.87 13.5512C17.5687 13.1279 17.143 12.809 16.6521 12.6388C16.1612 12.4686 15.6295 12.4556 15.1309 12.6015C14.6323 12.7475 14.1915 13.0451 13.8698 13.4532M14.1665 16.6673L13.8698 13.4532M14.1665 16.6673H5.83317M14.1665 16.6673V15.0007C14.1665 14.454 14.0615 13.9315 13.8698 13.4532M13.8698 13.4532C13.5604 12.6798 13.0263 12.0169 12.3365 11.5499C11.6467 11.083 10.8328 10.8334 9.99984 10.8334C9.16685 10.8334 8.35297 11.083 7.66317 11.5499C6.97337 12.0169 6.4393 12.6798 6.12984 13.4532M5.83317 16.6673H1.6665V15.0007C1.66654 14.4811 1.82845 13.9745 2.12972 13.5512C2.43099 13.1279 2.85666 12.809 3.34755 12.6388C3.83843 12.4686 4.37015 12.4556 4.86879 12.6015C5.36742 12.7475 5.80819 13.0451 6.12984 13.4532M5.83317 16.6673L6.12984 13.4532M5.83317 16.6673V15.0007C5.83317 14.454 5.93817 13.9315 6.12984 13.4532M12.4998 5.83398C12.4998 6.49703 12.2364 7.13291 11.7676 7.60175C11.2988 8.07059 10.6629 8.33398 9.99984 8.33398C9.3368 8.33398 8.70091 8.07059 8.23207 7.60175C7.76323 7.13291 7.49984 6.49703 7.49984 5.83398C7.49984 5.17094 7.76323 4.53506 8.23207 4.06622C8.70091 3.59738 9.3368 3.33398 9.99984 3.33398C10.6629 3.33398 11.2988 3.59738 11.7676 4.06622C12.2364 4.53506 12.4998 5.17094 12.4998 5.83398ZM17.4998 8.33398C17.4998 8.77601 17.3242 9.19993 17.0117 9.5125C16.6991 9.82506 16.2752 10.0007 15.8332 10.0007C15.3911 10.0007 14.9672 9.82506 14.6547 9.5125C14.3421 9.19993 14.1665 8.77601 14.1665 8.33398C14.1665 7.89196 14.3421 7.46803 14.6547 7.15547C14.9672 6.84291 15.3911 6.66732 15.8332 6.66732C16.2752 6.66732 16.6991 6.84291 17.0117 7.15547C17.3242 7.46803 17.4998 7.89196 17.4998 8.33398ZM5.83317 8.33398C5.83317 8.77601 5.65758 9.19993 5.34502 9.5125C5.03245 9.82506 4.60853 10.0007 4.1665 10.0007C3.72448 10.0007 3.30055 9.82506 2.98799 9.5125C2.67543 9.19993 2.49984 8.77601 2.49984 8.33398C2.49984 7.89196 2.67543 7.46803 2.98799 7.15547C3.30055 6.84291 3.72448 6.66732 4.1665 6.66732C4.60853 6.66732 5.03245 6.84291 5.34502 7.15547C5.65758 7.46803 5.83317 7.89196 5.83317 8.33398Z" fill="none" stroke-width="1.66667" stroke-linecap="round" stroke-linejoin="round"/>
    </symbol>
</svg>
