<svg width="20" height="20" viewBox="0 0 20 20" fill="none" xmlns="http://www.w3.org/2000/svg">
    <symbol id="author-ic">
        <path d="M5.83317 13.334V14.1673C5.83317 14.8304 6.09656 15.4662 6.5654 15.9351C7.03424 16.4039 7.67013 16.6673 8.33317 16.6673H14.1665C14.8295 16.6673 15.4654 16.4039 15.9343 15.9351C16.4031 15.4662 16.6665 14.8304 16.6665 14.1673V5.83398C16.6665 5.17094 16.4031 4.53506 15.9343 4.06622C15.4654 3.59738 14.8295 3.33398 14.1665 3.33398H8.33317C7.67013 3.33398 7.03424 3.59738 6.5654 4.06622C6.09656 4.53506 5.83317 5.17094 5.83317 5.83398V6.66732M9.99984 13.334L13.3332 10.0007L9.99984 13.334ZM13.3332 10.0007L9.99984 6.66732L13.3332 10.0007ZM13.3332 10.0007H1.6665H13.3332Z" fill="none" stroke-width="1.66667" stroke-linecap="round" stroke-linejoin="round"/>
    </symbol>
    <symbol id="ancetr-ic">
        <path d="M13.3337 5.83333C13.3337 6.71739 12.9825 7.56523 12.3573 8.19036C11.7322 8.81548 10.8844 9.16667 10.0003 9.16667C9.11627 9.16667 8.26842 8.81548 7.6433 8.19036C7.01818 7.56523 6.66699 6.71739 6.66699 5.83333C6.66699 4.94928 7.01818 4.10143 7.6433 3.47631C8.26842 2.85119 9.11627 2.5 10.0003 2.5C10.8844 2.5 11.7322 2.85119 12.3573 3.47631C12.9825 4.10143 13.3337 4.94928 13.3337 5.83333V5.83333ZM10.0003 11.6667C8.45323 11.6667 6.9695 12.2812 5.87554 13.3752C4.78157 14.4692 4.16699 15.9529 4.16699 17.5H15.8337C15.8337 15.9529 15.2191 14.4692 14.1251 13.3752C13.0312 12.2812 11.5474 11.6667 10.0003 11.6667V11.6667Z" fill="none" stroke-width="1.66667" stroke-linecap="round" stroke-linejoin="round"/>
    </symbol>
    <symbol id="contra-ic">
        <path d="M7.49935 10H12.4993H7.49935ZM7.49935 13.3333H12.4993H7.49935ZM14.166 17.5H5.83268C5.39065 17.5 4.96673 17.3244 4.65417 17.0118C4.34161 16.6993 4.16602 16.2754 4.16602 15.8333V4.16667C4.16602 3.72464 4.34161 3.30072 4.65417 2.98816C4.96673 2.67559 5.39065 2.5 5.83268 2.5H10.4877C10.7087 2.50005 10.9206 2.58788 11.0768 2.74417L15.5885 7.25583C15.7448 7.41208 15.8326 7.624 15.8327 7.845V15.8333C15.8327 16.2754 15.6571 16.6993 15.3445 17.0118C15.032 17.3244 14.608 17.5 14.166 17.5Z" fill="none" stroke-width="1.66667" stroke-linecap="round" stroke-linejoin="round"/>
    </symbol>
</svg>
