<svg width="37" height="37" viewBox="0 0 37 37" fill="none" xmlns="http://www.w3.org/2000/svg">
<rect opacity="0.16" x="0.550781" y="0.210938" width="36" height="36" rx="9" fill="white"/>
<path d="M9.5459 18.2109C9.5459 17.1064 10.4413 16.2109 11.5459 16.2109C12.6505 16.2109 13.5459 17.1064 13.5459 18.2109C13.5459 19.3155 12.6505 20.2109 11.5459 20.2109C10.4413 20.2109 9.5459 19.3155 9.5459 18.2109Z" fill="white"/>
<path d="M16.5512 18.2109C16.5512 17.1064 17.4466 16.2109 18.5512 16.2109C19.6557 16.2109 20.5512 17.1064 20.5512 18.2109C20.5512 19.3155 19.6557 20.2109 18.5512 20.2109C17.4466 20.2109 16.5512 19.3155 16.5512 18.2109Z" fill="white"/>
<path d="M23.5561 18.2109C23.5561 17.1064 24.4515 16.2109 25.5561 16.2109C26.6606 16.2109 27.5561 17.1064 27.5561 18.2109C27.5561 19.3155 26.6606 20.2109 25.5561 20.2109C24.4515 20.2109 23.5561 19.3155 23.5561 18.2109Z" fill="white"/>
</svg>
