<svg width="16" height="16" viewBox="0 0 16 16" fill="none" xmlns="http://www.w3.org/2000/svg">
	<symbol id="whole-list-ic">
		<path d="M6 4H13.3333M6 8H13.3333M6 12H13.3333" fill="none" stroke-width="1.33333" stroke-linecap="round" stroke-linejoin="round"/>
		<path d="M2.6665 4H3.33317M2.6665 8H3.33317M2.6665 12H3.33317" fill="none" stroke-width="1.33333" stroke-linecap="round" stroke-linejoin="round"/>
	</symbol>
	<symbol id="transactions-list-ic">
		<path d="M5.99984 2L3.33317 6L12.6665 6" fill="none" stroke-width="1.33333" stroke-linecap="round" stroke-linejoin="round"/>
		<path d="M10.0002 14L12.6668 10L3.3335 10" fill="none" stroke-width="1.33333" stroke-linecap="round" stroke-linejoin="round"/>
	</symbol>
	<symbol id="registers-list-ic">
		<path fill="none" d="M14.0073 14.045H4.00004C3.25034 14.045 2.64258 13.4373 2.64258 12.6876V12.6876M5.33304 5.3296H10.6706M2.64258 12.6876V12.6876C2.64258 11.9379 3.25033 11.3301 4.00004 11.3301H13.3867V1.98242H3.34258C2.95598 1.98242 2.64258 2.29582 2.64258 2.68242V12.6876Z" stroke-width="1.3"/>
	</symbol>
	<symbol id="aito-cancellation-list-ic">
		<path d="M2.6665 2.66629L3.0545 5.99963M3.0545 5.99963C3.49707 4.90505 4.29029 3.98823 5.30986 3.39287C6.32942 2.7975 7.51771 2.55724 8.68848 2.70972C9.85926 2.8622 10.9464 3.39882 11.7794 4.23548C12.6125 5.07213 13.1444 6.16154 13.2918 7.33296M3.0545 5.99963H5.99984M13.3332 13.333L12.9458 9.99963M12.9458 9.99963C12.5026 11.0936 11.7092 12.0097 10.6897 12.6045C9.67026 13.1993 8.48233 13.4393 7.3119 13.2869C6.14148 13.1344 5.05464 12.5982 4.22153 11.7621C3.38842 10.926 2.85607 9.83726 2.70784 8.66629M12.9458 9.99963H9.99984" fill="none" stroke-width="1.33333" stroke-linecap="round" stroke-linejoin="round"/>
	</symbol>
</svg>
