<svg width="24" height="24" viewBox="0 0 24 24" fill="none" xmlns="http://www.w3.org/2000/svg">
	<symbol id="main-ic">
		<path d="M10.683 4.15238L5.02449 9.10357C4.37344 9.67324 4 10.4962 4 11.3613V19C4 19.5304 4.21071 20.0391 4.58579 20.4142C4.96086 20.7893 5.46957 21 6 21H18C18.5304 21 19.0391 20.7893 19.4142 20.4142C19.7893 20.0391 20 19.5304 20 19V11.3613C20 10.4962 19.6266 9.67324 18.9755 9.10358L13.317 4.15238C12.563 3.49259 11.437 3.49259 10.683 4.15238Z" fill="none" stroke-width="2" stroke-linecap="round" stroke-linejoin="round"/>
		<path d="M9 21V16C9 14.8954 9.89543 14 11 14H13C14.1046 14 15 14.8954 15 16V21" fill="none" stroke-width="2" stroke-linecap="round" stroke-linejoin="round"/>
	</symbol>
	<symbol id="oper-ic">
		<path fill="none" d="M17 9V7C17 6.46957 16.7893 5.96086 16.4142 5.58579C16.0391 5.21071 15.5304 5 15 5H5C4.46957 5 3.96086 5.21071 3.58579 5.58579C3.21071 5.96086 3 6.46957 3 7V13C3 13.5304 3.21071 14.0391 3.58579 14.4142C3.96086 14.7893 4.46957 15 5 15H7M9 19H19C19.5304 19 20.0391 18.7893 20.4142 18.4142C20.7893 18.0391 21 17.5304 21 17V11C21 10.4696 20.7893 9.96086 20.4142 9.58579C20.0391 9.21071 19.5304 9 19 9H9C8.46957 9 7.96086 9.21071 7.58579 9.58579C7.21071 9.96086 7 10.4696 7 11V17C7 17.5304 7.21071 18.0391 7.58579 18.4142C7.96086 18.7893 8.46957 19 9 19ZM16 14C16 14.5304 15.7893 15.0391 15.4142 15.4142C15.0391 15.7893 14.5304 16 14 16C13.4696 16 12.9609 15.7893 12.5858 15.4142C12.2107 15.0391 12 14.5304 12 14C12 13.4696 12.2107 12.9609 12.5858 12.5858C12.9609 12.2107 13.4696 12 14 12C14.5304 12 15.0391 12.2107 15.4142 12.5858C15.7893 12.9609 16 13.4696 16 14Z" stroke-width="2" stroke-linecap="round" stroke-linejoin="round"/>
	</symbol>
	<symbol id="rep-ic">
		<path fill="none" d="M8 7V15C8 15.5304 8.21071 16.0391 8.58579 16.4142C8.96086 16.7893 9.46957 17 10 17H16M8 7V5C8 4.46957 8.21071 3.96086 8.58579 3.58579C8.96086 3.21071 9.46957 3 10 3H14.586C14.8512 3.00006 15.1055 3.10545 15.293 3.293L19.707 7.707C19.8946 7.89449 19.9999 8.1488 20 8.414V15C20 15.5304 19.7893 16.0391 19.4142 16.4142C19.0391 16.7893 18.5304 17 18 17H16M8 7H6C5.46957 7 4.96086 7.21071 4.58579 7.58579C4.21071 7.96086 4 8.46957 4 9V19C4 19.5304 4.21071 20.0391 4.58579 20.4142C4.96086 20.7893 5.46957 21 6 21H14C14.5304 21 15.0391 20.7893 15.4142 20.4142C15.7893 20.0391 16 19.5304 16 19V17" stroke-width="2" stroke-linecap="round" stroke-linejoin="round"/>
	</symbol>
	<symbol id="rate-ic">
		<path fill="none" d="M19 11H5M19 11C19.5304 11 20.0391 11.2107 20.4142 11.5858C20.7893 11.9609 21 12.4696 21 13V19C21 19.5304 20.7893 20.0391 20.4142 20.4142C20.0391 20.7893 19.5304 21 19 21H5C4.46957 21 3.96086 20.7893 3.58579 20.4142C3.21071 20.0391 3 19.5304 3 19V13C3 12.4696 3.21071 11.9609 3.58579 11.5858C3.96086 11.2107 4.46957 11 5 11M19 11V9C19 8.46957 18.7893 7.96086 18.4142 7.58579C18.0391 7.21071 17.5304 7 17 7M5 11V9C5 8.46957 5.21071 7.96086 5.58579 7.58579C5.96086 7.21071 6.46957 7 7 7M17 7V5C17 4.46957 16.7893 3.96086 16.4142 3.58579C16.0391 3.21071 15.5304 3 15 3H9C8.46957 3 7.96086 3.21071 7.58579 3.58579C7.21071 3.96086 7 4.46957 7 5V7M17 7H7" stroke-width="2" stroke-linecap="round" stroke-linejoin="round"/>
	</symbol>
	<symbol id="role-ic">
		<path fill="none" d="M12 2.94336C14.3567 5.05797 17.4561 6.15127 20.618 5.98336C20.867 6.94736 21 7.95736 21 8.99936C21 14.5914 17.176 19.2894 12 20.6214C6.824 19.2894 3 14.5904 3 8.99936C2.99918 7.98191 3.12754 6.96847 3.382 5.98336C6.5439 6.15127 9.64327 5.05797 12 2.94336Z" stroke-width="2" stroke-linecap="round" stroke-linejoin="round"/>
	</symbol>
	<symbol id="clients-ic">
		<path fill="none" d="M12 4.354C12.5374 3.7447 13.2477 3.31351 14.0362 3.11779C14.8247 2.92208 15.6542 2.97112 16.4142 3.2584C17.1741 3.54568 17.8286 4.05757 18.2905 4.72596C18.7524 5.39435 18.9998 6.18754 18.9998 7C18.9998 7.81246 18.7524 8.60565 18.2905 9.27404C17.8286 9.94243 17.1741 10.4543 16.4142 10.7416C15.6542 11.0289 14.8247 11.0779 14.0362 10.8822C13.2477 10.6865 12.5374 10.2553 12 9.646M15 21H3V20C3 18.4087 3.63214 16.8826 4.75736 15.7574C5.88258 14.6321 7.4087 14 9 14C10.5913 14 12.1174 14.6321 13.2426 15.7574C14.3679 16.8826 15 18.4087 15 20V21ZM15 21H21V20C21.0001 18.9467 20.723 17.9119 20.1965 16.9997C19.6699 16.0875 18.9125 15.3299 18.0004 14.8032C17.0882 14.2765 16.0535 13.9992 15.0002 13.9992C13.9469 13.9991 12.9122 14.2764 12 14.803M13 7C13 8.06087 12.5786 9.07828 11.8284 9.82843C11.0783 10.5786 10.0609 11 9 11C7.93913 11 6.92172 10.5786 6.17157 9.82843C5.42143 9.07828 5 8.06087 5 7C5 5.93913 5.42143 4.92172 6.17157 4.17157C6.92172 3.42143 7.93913 3 9 3C10.0609 3 11.0783 3.42143 11.8284 4.17157C12.5786 4.92172 13 5.93913 13 7Z" stroke-width="2" stroke-linecap="round" stroke-linejoin="round"/>
	</symbol>
</svg>
