<svg width="24" height="24" viewBox="0 0 24 24" fill="none" xmlns="http://www.w3.org/2000/svg">
<path d="M8.99985 12.0008L10.9999 14.0008L14.9999 10.0008M7.83485 4.69783C8.55216 4.64058 9.23313 4.35853 9.78085 3.89183C10.3998 3.3641 11.1865 3.07422 11.9999 3.07422C12.8132 3.07422 13.5999 3.3641 14.2189 3.89183C14.7666 4.35853 15.4475 4.64058 16.1649 4.69783C16.9756 4.76233 17.7368 5.11365 18.3119 5.68875C18.887 6.26385 19.2383 7.02508 19.3029 7.83583C19.3601 8.55313 19.6421 9.23411 20.1089 9.78183C20.6366 10.4007 20.9265 11.1875 20.9265 12.0008C20.9265 12.8142 20.6366 13.6009 20.1089 14.2198C19.6421 14.7675 19.3601 15.4485 19.3029 16.1658C19.2383 16.9766 18.887 17.7378 18.3119 18.3129C17.7368 18.888 16.9756 19.2393 16.1649 19.3038C15.4475 19.3611 14.7666 19.6431 14.2189 20.1098C13.5999 20.6376 12.8132 20.9274 11.9999 20.9274C11.1865 20.9274 10.3998 20.6376 9.78085 20.1098C9.23313 19.6431 8.55216 19.3611 7.83485 19.3038C7.0241 19.2393 6.26287 18.888 5.68777 18.3129C5.11268 17.7378 4.76135 16.9766 4.69685 16.1658C4.6396 15.4485 4.35755 14.7675 3.89085 14.2198C3.36312 13.6009 3.07324 12.8142 3.07324 12.0008C3.07324 11.1875 3.36312 10.4007 3.89085 9.78183C4.35755 9.23411 4.6396 8.55313 4.69685 7.83583C4.76135 7.02508 5.11268 6.26385 5.68777 5.68875C6.26287 5.11365 7.0241 4.76233 7.83485 4.69783Z" stroke="white" stroke-width="2" stroke-linecap="round" stroke-linejoin="round"/>
</svg>
